<svg width="50" height="50" viewBox="0 0 50 50" fill="none" xmlns="http://www.w3.org/2000/svg">
<rect width="50" height="50" rx="25" fill="none"/>
<path fill-rule="evenodd" clip-rule="evenodd" d="M19.8184 16.6606C19.8184 16.1752 20.2223 15.7817 20.7205 15.7817H25.0006C25.4988 15.7817 25.9027 16.1752 25.9027 16.6606V20.8303C25.9027 21.3157 25.4988 21.7092 25.0006 21.7092C24.5023 21.7092 24.0984 21.3157 24.0984 20.8303V17.5396H20.7205C20.2223 17.5396 19.8184 17.1461 19.8184 16.6606Z" fill="white"/>
<path fill-rule="evenodd" clip-rule="evenodd" d="M18.5798 21.7095C17.8961 21.7095 17.3419 22.2494 17.3419 22.9154V31.2548C17.3419 31.9208 17.8961 32.4607 18.5798 32.4607H31.4199C32.1036 32.4607 32.6578 31.9208 32.6578 31.2548V22.9154C32.6578 22.2494 32.1036 21.7095 31.4199 21.7095H18.5798ZM15.5376 22.9154C15.5376 21.2786 16.8996 19.9517 18.5798 19.9517H31.4199C33.1001 19.9517 34.4621 21.2786 34.4621 22.9154V31.2548C34.4621 32.8916 33.1001 34.2186 31.4199 34.2186H18.5798C16.8996 34.2186 15.5376 32.8916 15.5376 31.2548V22.9154Z" fill="white"/>
<path fill-rule="evenodd" clip-rule="evenodd" d="M21.7902 25.1636C22.2885 25.1636 22.6924 25.5571 22.6924 26.0425V28.1273C22.6924 28.6127 22.2885 29.0062 21.7902 29.0062C21.2919 29.0062 20.888 28.6127 20.888 28.1273V26.0425C20.888 25.5571 21.2919 25.1636 21.7902 25.1636ZM28.2103 25.1636C28.7085 25.1636 29.1124 25.5571 29.1124 26.0425V28.1273C29.1124 28.6127 28.7085 29.0062 28.2103 29.0062C27.712 29.0062 27.3081 28.6127 27.3081 28.1273V26.0425C27.3081 25.5571 27.712 25.1636 28.2103 25.1636ZM13.3979 27.0849C13.3979 26.5995 13.8019 26.206 14.3001 26.206H16.4401C16.9384 26.206 17.3423 26.5995 17.3423 27.0849C17.3423 27.5703 16.9384 27.9638 16.4401 27.9638H14.3001C13.8019 27.9638 13.3979 27.5703 13.3979 27.0849ZM32.6582 27.0849C32.6582 26.5995 33.0621 26.206 33.5603 26.206H35.7004C36.1986 26.206 36.6025 26.5995 36.6025 27.0849C36.6025 27.5703 36.1986 27.9638 35.7004 27.9638H33.5603C33.0621 27.9638 32.6582 27.5703 32.6582 27.0849Z" fill="white"/>
</svg>
